<svg width="379" height="106" viewBox="0 0 379 106" fill="none" xmlns="http://www.w3.org/2000/svg">
<path opacity="0.5" fill-rule="evenodd" clip-rule="evenodd" d="M0 6.9471V7.74182L6.72629 0H6.03582L0 6.9471ZM13.8476 0L0 15.9383V16.733L14.5381 0H13.8476ZM21.6594 0L0 24.9295V25.7242L22.3498 0H21.6594ZM29.4711 0L0 33.9206V34.7153L30.1616 0H29.4711ZM37.2829 0L0 42.9118V43.7065L37.9733 0H37.2829ZM45.0947 0L0 51.903V52.6977L45.7851 0H45.0947ZM52.9064 0L0 60.8942V61.6889L53.5969 0H52.9064ZM60.7182 0L0 69.8854V70.6801L61.4086 0H60.7182ZM68.53 0L0 78.8765V79.6712L69.2204 0H68.53ZM76.3417 0L0 87.8677V88.6624L77.0322 0H76.3417ZM84.1535 0L0 96.8589V97.6536L84.8439 0H84.1535ZM91.9652 0L0 105.85V106H0.560203L92.6557 0H91.9652ZM99.777 0L7.6815 106H8.37193L100.467 0H99.777ZM107.589 0L15.4933 106H16.1837L108.279 0H107.589ZM115.401 0L23.3051 106H23.9955L116.091 0H115.401ZM123.212 0L31.1168 106H31.8072L123.903 0H123.212ZM131.024 0L38.9286 106H39.619L131.714 0H131.024ZM138.836 0L46.7404 106H47.4308L139.526 0H138.836ZM146.648 0L54.5521 106H55.2425L147.338 0H146.648ZM154.459 0L62.3639 106H63.0543L155.15 0H154.459ZM162.271 0L70.1757 106H70.8661L162.962 0H162.271ZM170.083 0L77.9874 106H78.6778L170.773 0H170.083ZM177.895 0L85.7992 106H86.4896L178.585 0H177.895ZM185.706 0L93.6109 106H94.3014L186.397 0H185.706ZM193.518 0L101.423 106H102.113L194.209 0H193.518ZM201.33 0L109.234 106H109.925L202.02 0H201.33ZM209.142 0L117.046 106H117.737L209.832 0H209.142ZM216.954 0L124.858 106H125.548L217.644 0H216.954ZM224.765 0L132.67 106H133.36L225.456 0H224.765ZM232.577 0L140.482 106H141.172L233.267 0H232.577ZM240.389 0L148.293 106H148.984L241.079 0H240.389ZM248.201 0L156.105 106H156.795L248.891 0H248.201ZM256.012 0L163.917 106H164.607L256.703 0H256.012ZM263.824 0L171.729 106H172.419L264.515 0H263.824ZM271.636 0L179.54 106H180.231L272.326 0H271.636ZM279.448 0L187.352 106H188.043L280.138 0H279.448ZM287.259 0L195.164 106H195.854L287.95 0H287.259ZM295.071 0L202.976 106H203.666L295.762 0H295.071ZM302.883 0L210.787 106H211.478L303.573 0H302.883ZM310.695 0L218.599 106H219.29L311.385 0H310.695ZM318.506 0L226.411 106H227.101L319.197 0H318.506ZM326.318 0L234.223 106H234.913L327.009 0H326.318ZM334.13 0L242.035 106H242.725L334.82 0H334.13ZM341.942 0L249.846 106H250.537L342.632 0H341.942ZM349.754 0L257.658 106H258.348L350.444 0H349.754ZM357.565 0L265.47 106H266.16L358.256 0H357.565ZM365.377 0L273.282 106H273.972L366.067 0H365.377ZM373.189 0L281.093 106H281.784L373.879 0H373.189ZM379 2.30262L288.905 106H289.595L379 3.09726V2.30262ZM379 11.2938L296.717 106H297.407L379 12.0885V11.2938ZM379 20.285L304.529 106H305.219L379 21.0796V20.285ZM379 29.2761L312.34 106H313.031L379 30.0708V29.2761ZM379 38.2673L320.152 106H320.843L379 39.062V38.2673ZM379 47.2585L327.964 106H328.654L379 48.0532V47.2585ZM379 56.2497L335.776 106H336.466L379 57.0443V56.2497ZM379 65.2409L343.587 106H344.278L379 66.0355V65.2409ZM379 74.232L351.399 106H352.09L379 75.0267V74.232ZM379 83.2232L359.211 106H359.901L379 84.0179V83.2232ZM379 92.2144L367.023 106H367.713L379 93.009V92.2144ZM379 101.206L374.835 106H375.525L379 102V101.206Z" fill="#040404"/>
</svg>
