<svg width="1285" height="869" viewBox="0 0 1285 869" fill="none" xmlns="http://www.w3.org/2000/svg">
<mask id="path-1-inside-1_39_6" fill="white">
<path d="M642.5 0L1285 869H1277.61L642.5 10L7.39356 869H0L642.5 0Z"/>
<path d="M27.3562 869H19.9626L642.5 27L1265.04 869H1257.64L642.5 37L27.3562 869Z"/>
<path d="M47.3188 869H39.9252L642.5 54L1245.07 869H1237.68L642.5 64L47.3188 869Z"/>
<path d="M67.2814 869H59.8878L642.5 81L1225.11 869H1217.72L642.5 91L67.2814 869Z"/>
<path d="M87.244 869H79.8504L642.5 108L1205.15 869H1197.76L642.5 118L87.244 869Z"/>
<path d="M107.207 869H99.813L642.5 135L1185.19 869H1177.79L642.5 145L107.207 869Z"/>
<path d="M127.169 869H119.776L642.5 162L1165.22 869H1157.83L642.5 172L127.169 869Z"/>
<path d="M147.132 869H139.738L642.5 189L1145.26 869H1137.87L642.5 199L147.132 869Z"/>
<path d="M167.094 869H159.701L642.5 216L1125.3 869H1117.91L642.5 226L167.094 869Z"/>
<path d="M187.057 869H179.663L642.5 243L1105.34 869H1097.94L642.5 253L187.057 869Z"/>
<path d="M207.02 869H199.626L642.5 270L1085.37 869H1077.98L642.5 280L207.02 869Z"/>
<path d="M226.982 869H219.589L642.5 297L1065.41 869H1058.02L642.5 307L226.982 869Z"/>
<path d="M246.945 869H239.551L642.5 324L1045.45 869H1038.06L642.5 334L246.945 869Z"/>
<path d="M266.907 869H259.514L642.5 351L1025.49 869H1018.09L642.5 361L266.907 869Z"/>
<path d="M286.87 869H279.476L642.5 378L1005.52 869H998.13L642.5 388L286.87 869Z"/>
<path d="M306.833 869H299.439L642.5 405L985.561 869H978.167L642.5 415L306.833 869Z"/>
<path d="M326.795 869H319.402L642.5 432L965.598 869H958.205L642.5 442L326.795 869Z"/>
<path d="M346.758 869H339.364L642.5 459L945.636 869H938.242L642.5 469L346.758 869Z"/>
<path d="M366.72 869H359.327L642.5 486L925.673 869H918.28L642.5 496L366.72 869Z"/>
<path d="M386.683 869H379.289L642.5 513L905.711 869H898.317L642.5 523L386.683 869Z"/>
<path d="M406.646 869H399.252L642.5 540L885.748 869H878.354L642.5 550L406.646 869Z"/>
<path d="M426.608 869H419.215L642.5 567L865.785 869H858.392L642.5 577L426.608 869Z"/>
<path d="M446.571 869H439.177L642.5 594L845.823 869H838.429L642.5 604L446.571 869Z"/>
<path d="M466.533 869H459.14L642.5 621L825.86 869H818.467L642.5 631L466.533 869Z"/>
<path d="M486.496 869H479.102L642.5 648L805.898 869H798.504L642.5 658L486.496 869Z"/>
<path d="M506.459 869H499.065L642.5 675L785.935 869H778.541L642.5 685L506.459 869Z"/>
<path d="M526.421 869H519.028L642.5 702L765.972 869H758.579L642.5 712L526.421 869Z"/>
<path d="M546.384 869H538.99L642.5 729L746.01 869H738.616L642.5 739L546.384 869Z"/>
<path d="M566.346 869H558.953L642.5 756L726.047 869H718.654L642.5 766L566.346 869Z"/>
<path d="M586.309 869H578.915L642.5 783L706.085 869H698.691L642.5 793L586.309 869Z"/>
<path d="M606.272 869H598.878L642.5 810L686.122 869H678.729L642.5 820L606.272 869Z"/>
<path d="M626.234 869H618.841L642.5 837L666.159 869H658.766L642.5 847L626.234 869Z"/>
<path d="M646.197 869H638.803L642.5 864L646.197 869Z"/>
</mask>
<path d="M642.5 0L1285 869H1277.61L642.5 10L7.39356 869H0L642.5 0Z" fill="#D9D9D9"/>
<path d="M27.3562 869H19.9626L642.5 27L1265.04 869H1257.64L642.5 37L27.3562 869Z" fill="#D9D9D9"/>
<path d="M47.3188 869H39.9252L642.5 54L1245.07 869H1237.68L642.5 64L47.3188 869Z" fill="#D9D9D9"/>
<path d="M67.2814 869H59.8878L642.5 81L1225.11 869H1217.72L642.5 91L67.2814 869Z" fill="#D9D9D9"/>
<path d="M87.244 869H79.8504L642.5 108L1205.15 869H1197.76L642.5 118L87.244 869Z" fill="#D9D9D9"/>
<path d="M107.207 869H99.813L642.5 135L1185.19 869H1177.79L642.5 145L107.207 869Z" fill="#D9D9D9"/>
<path d="M127.169 869H119.776L642.5 162L1165.22 869H1157.83L642.5 172L127.169 869Z" fill="#D9D9D9"/>
<path d="M147.132 869H139.738L642.5 189L1145.26 869H1137.87L642.5 199L147.132 869Z" fill="#D9D9D9"/>
<path d="M167.094 869H159.701L642.5 216L1125.3 869H1117.91L642.5 226L167.094 869Z" fill="#D9D9D9"/>
<path d="M187.057 869H179.663L642.5 243L1105.34 869H1097.94L642.5 253L187.057 869Z" fill="#D9D9D9"/>
<path d="M207.02 869H199.626L642.5 270L1085.37 869H1077.98L642.5 280L207.02 869Z" fill="#D9D9D9"/>
<path d="M226.982 869H219.589L642.5 297L1065.41 869H1058.02L642.5 307L226.982 869Z" fill="#D9D9D9"/>
<path d="M246.945 869H239.551L642.5 324L1045.45 869H1038.06L642.5 334L246.945 869Z" fill="#D9D9D9"/>
<path d="M266.907 869H259.514L642.5 351L1025.49 869H1018.09L642.5 361L266.907 869Z" fill="#D9D9D9"/>
<path d="M286.87 869H279.476L642.5 378L1005.52 869H998.13L642.5 388L286.87 869Z" fill="#D9D9D9"/>
<path d="M306.833 869H299.439L642.5 405L985.561 869H978.167L642.5 415L306.833 869Z" fill="#D9D9D9"/>
<path d="M326.795 869H319.402L642.5 432L965.598 869H958.205L642.5 442L326.795 869Z" fill="#D9D9D9"/>
<path d="M346.758 869H339.364L642.5 459L945.636 869H938.242L642.5 469L346.758 869Z" fill="#D9D9D9"/>
<path d="M366.72 869H359.327L642.5 486L925.673 869H918.28L642.5 496L366.72 869Z" fill="#D9D9D9"/>
<path d="M386.683 869H379.289L642.5 513L905.711 869H898.317L642.5 523L386.683 869Z" fill="#D9D9D9"/>
<path d="M406.646 869H399.252L642.5 540L885.748 869H878.354L642.5 550L406.646 869Z" fill="#D9D9D9"/>
<path d="M426.608 869H419.215L642.5 567L865.785 869H858.392L642.5 577L426.608 869Z" fill="#D9D9D9"/>
<path d="M446.571 869H439.177L642.5 594L845.823 869H838.429L642.5 604L446.571 869Z" fill="#D9D9D9"/>
<path d="M466.533 869H459.14L642.5 621L825.86 869H818.467L642.5 631L466.533 869Z" fill="#D9D9D9"/>
<path d="M486.496 869H479.102L642.5 648L805.898 869H798.504L642.5 658L486.496 869Z" fill="#D9D9D9"/>
<path d="M506.459 869H499.065L642.5 675L785.935 869H778.541L642.5 685L506.459 869Z" fill="#D9D9D9"/>
<path d="M526.421 869H519.028L642.5 702L765.972 869H758.579L642.5 712L526.421 869Z" fill="#D9D9D9"/>
<path d="M546.384 869H538.99L642.5 729L746.01 869H738.616L642.5 739L546.384 869Z" fill="#D9D9D9"/>
<path d="M566.346 869H558.953L642.5 756L726.047 869H718.654L642.5 766L566.346 869Z" fill="#D9D9D9"/>
<path d="M586.309 869H578.915L642.5 783L706.085 869H698.691L642.5 793L586.309 869Z" fill="#D9D9D9"/>
<path d="M606.272 869H598.878L642.5 810L686.122 869H678.729L642.5 820L606.272 869Z" fill="#D9D9D9"/>
<path d="M626.234 869H618.841L642.5 837L666.159 869H658.766L642.5 847L626.234 869Z" fill="#D9D9D9"/>
<path d="M646.197 869H638.803L642.5 864L646.197 869Z" fill="#D9D9D9"/>
<path d="M642.5 0L1285 869H1277.61L642.5 10L7.39356 869H0L642.5 0Z" stroke="#2B2B2B" stroke-width="8" mask="url(#path-1-inside-1_39_6)"/>
<path d="M27.3562 869H19.9626L642.5 27L1265.04 869H1257.64L642.5 37L27.3562 869Z" stroke="#2B2B2B" stroke-width="8" mask="url(#path-1-inside-1_39_6)"/>
<path d="M47.3188 869H39.9252L642.5 54L1245.07 869H1237.68L642.5 64L47.3188 869Z" stroke="#2B2B2B" stroke-width="8" mask="url(#path-1-inside-1_39_6)"/>
<path d="M67.2814 869H59.8878L642.5 81L1225.11 869H1217.72L642.5 91L67.2814 869Z" stroke="#2B2B2B" stroke-width="8" mask="url(#path-1-inside-1_39_6)"/>
<path d="M87.244 869H79.8504L642.5 108L1205.15 869H1197.76L642.5 118L87.244 869Z" stroke="#2B2B2B" stroke-width="8" mask="url(#path-1-inside-1_39_6)"/>
<path d="M107.207 869H99.813L642.5 135L1185.19 869H1177.79L642.5 145L107.207 869Z" stroke="#2B2B2B" stroke-width="8" mask="url(#path-1-inside-1_39_6)"/>
<path d="M127.169 869H119.776L642.5 162L1165.22 869H1157.83L642.5 172L127.169 869Z" stroke="#2B2B2B" stroke-width="8" mask="url(#path-1-inside-1_39_6)"/>
<path d="M147.132 869H139.738L642.5 189L1145.26 869H1137.87L642.5 199L147.132 869Z" stroke="#2B2B2B" stroke-width="8" mask="url(#path-1-inside-1_39_6)"/>
<path d="M167.094 869H159.701L642.5 216L1125.3 869H1117.91L642.5 226L167.094 869Z" stroke="#2B2B2B" stroke-width="8" mask="url(#path-1-inside-1_39_6)"/>
<path d="M187.057 869H179.663L642.5 243L1105.34 869H1097.94L642.5 253L187.057 869Z" stroke="#2B2B2B" stroke-width="8" mask="url(#path-1-inside-1_39_6)"/>
<path d="M207.02 869H199.626L642.5 270L1085.37 869H1077.98L642.5 280L207.02 869Z" stroke="#2B2B2B" stroke-width="8" mask="url(#path-1-inside-1_39_6)"/>
<path d="M226.982 869H219.589L642.5 297L1065.41 869H1058.02L642.5 307L226.982 869Z" stroke="#2B2B2B" stroke-width="8" mask="url(#path-1-inside-1_39_6)"/>
<path d="M246.945 869H239.551L642.5 324L1045.45 869H1038.06L642.5 334L246.945 869Z" stroke="#2B2B2B" stroke-width="8" mask="url(#path-1-inside-1_39_6)"/>
<path d="M266.907 869H259.514L642.5 351L1025.49 869H1018.09L642.5 361L266.907 869Z" stroke="#2B2B2B" stroke-width="8" mask="url(#path-1-inside-1_39_6)"/>
<path d="M286.87 869H279.476L642.5 378L1005.52 869H998.13L642.5 388L286.87 869Z" stroke="#2B2B2B" stroke-width="8" mask="url(#path-1-inside-1_39_6)"/>
<path d="M306.833 869H299.439L642.5 405L985.561 869H978.167L642.5 415L306.833 869Z" stroke="#2B2B2B" stroke-width="8" mask="url(#path-1-inside-1_39_6)"/>
<path d="M326.795 869H319.402L642.5 432L965.598 869H958.205L642.5 442L326.795 869Z" stroke="#2B2B2B" stroke-width="8" mask="url(#path-1-inside-1_39_6)"/>
<path d="M346.758 869H339.364L642.5 459L945.636 869H938.242L642.5 469L346.758 869Z" stroke="#2B2B2B" stroke-width="8" mask="url(#path-1-inside-1_39_6)"/>
<path d="M366.72 869H359.327L642.5 486L925.673 869H918.28L642.5 496L366.72 869Z" stroke="#2B2B2B" stroke-width="8" mask="url(#path-1-inside-1_39_6)"/>
<path d="M386.683 869H379.289L642.5 513L905.711 869H898.317L642.5 523L386.683 869Z" stroke="#2B2B2B" stroke-width="8" mask="url(#path-1-inside-1_39_6)"/>
<path d="M406.646 869H399.252L642.5 540L885.748 869H878.354L642.5 550L406.646 869Z" stroke="#2B2B2B" stroke-width="8" mask="url(#path-1-inside-1_39_6)"/>
<path d="M426.608 869H419.215L642.5 567L865.785 869H858.392L642.5 577L426.608 869Z" stroke="#2B2B2B" stroke-width="8" mask="url(#path-1-inside-1_39_6)"/>
<path d="M446.571 869H439.177L642.5 594L845.823 869H838.429L642.5 604L446.571 869Z" stroke="#2B2B2B" stroke-width="8" mask="url(#path-1-inside-1_39_6)"/>
<path d="M466.533 869H459.14L642.5 621L825.86 869H818.467L642.5 631L466.533 869Z" stroke="#2B2B2B" stroke-width="8" mask="url(#path-1-inside-1_39_6)"/>
<path d="M486.496 869H479.102L642.5 648L805.898 869H798.504L642.5 658L486.496 869Z" stroke="#2B2B2B" stroke-width="8" mask="url(#path-1-inside-1_39_6)"/>
<path d="M506.459 869H499.065L642.5 675L785.935 869H778.541L642.5 685L506.459 869Z" stroke="#2B2B2B" stroke-width="8" mask="url(#path-1-inside-1_39_6)"/>
<path d="M526.421 869H519.028L642.5 702L765.972 869H758.579L642.5 712L526.421 869Z" stroke="#2B2B2B" stroke-width="8" mask="url(#path-1-inside-1_39_6)"/>
<path d="M546.384 869H538.99L642.5 729L746.01 869H738.616L642.5 739L546.384 869Z" stroke="#2B2B2B" stroke-width="8" mask="url(#path-1-inside-1_39_6)"/>
<path d="M566.346 869H558.953L642.5 756L726.047 869H718.654L642.5 766L566.346 869Z" stroke="#2B2B2B" stroke-width="8" mask="url(#path-1-inside-1_39_6)"/>
<path d="M586.309 869H578.915L642.5 783L706.085 869H698.691L642.5 793L586.309 869Z" stroke="#2B2B2B" stroke-width="8" mask="url(#path-1-inside-1_39_6)"/>
<path d="M606.272 869H598.878L642.5 810L686.122 869H678.729L642.5 820L606.272 869Z" stroke="#2B2B2B" stroke-width="8" mask="url(#path-1-inside-1_39_6)"/>
<path d="M626.234 869H618.841L642.5 837L666.159 869H658.766L642.5 847L626.234 869Z" stroke="#2B2B2B" stroke-width="8" mask="url(#path-1-inside-1_39_6)"/>
<path d="M646.197 869H638.803L642.5 864L646.197 869Z" stroke="#2B2B2B" stroke-width="8" mask="url(#path-1-inside-1_39_6)"/>
</svg>
